<svg width="700" height="700" viewBox="0 0 700 700" fill="none" xmlns="http://www.w3.org/2000/svg">
<path d="M680.238 20.3694C662.731 2.40093 636.82 -4.2932 612.661 2.75326L49.2799 166.583C23.7894 173.665 5.72205 193.994 0.855056 219.819C-4.11698 246.103 13.2501 279.468 35.9394 293.42L212.097 401.688C230.164 412.786 253.483 410.003 268.435 394.924L470.152 191.951C480.306 181.381 497.113 181.381 507.267 191.951C517.422 202.168 517.422 218.727 507.267 229.297L305.2 432.305C290.214 447.349 287.412 470.779 298.442 488.959L406.076 666.882C418.681 688.021 440.39 700 464.2 700C467.001 700 470.152 700 472.953 699.648C500.264 696.124 521.973 677.451 530.027 651.027L697.045 88.3677C704.398 64.4097 697.745 38.3379 680.238 20.3694" fill="white"/>
</svg>
